<svg width="32" height="32" viewBox="0 0 32 32" fill="none" xmlns="http://www.w3.org/2000/svg">
<g id="Frame 17" clip-path="url(#clip0_1_2703)">
<path id="Subtract" fill-rule="evenodd" clip-rule="evenodd" d="M16 32C24.8366 32 32 24.8366 32 16C32 7.16344 24.8366 0 16 0C7.16344 0 0 7.16344 0 16C0 24.8366 7.16344 32 16 32ZM20.4815 15.1505C20.5701 15.1886 20.6576 15.2283 20.7438 15.2696C21.9615 15.8538 22.852 16.7382 23.3191 17.8272C23.9701 19.3457 24.0296 21.8194 22.0543 23.7928C20.5445 25.3013 18.7118 25.982 16.1117 26H16.1C13.1755 25.9798 10.9266 24.9956 9.41577 23.0751C8.07136 21.366 7.37787 18.9879 7.35457 16.007L7.35449 16L7.35457 15.993C7.37787 13.0121 8.07136 10.634 9.41577 8.92493C10.9266 7.00435 13.1755 6.02026 16.1 6H16.1117C19.0422 6.02033 21.3166 7.0007 22.8717 8.91396C23.639 9.85789 24.2028 10.9961 24.5612 12.3169L22.8792 12.7657C22.5836 11.6926 22.1351 10.7722 21.5403 10.0404C20.3273 8.54806 18.4991 7.78243 16.1059 7.76464C13.7299 7.78229 11.933 8.54426 10.7647 10.0294C9.67069 11.4202 9.10529 13.4289 9.0842 16C9.10529 18.571 9.67069 20.5798 10.7647 21.9705C11.933 23.4557 13.7299 24.2177 16.1059 24.2353C18.2478 24.2196 19.6651 23.71 20.8442 22.5321C22.1899 21.1875 22.1648 19.5382 21.7344 18.5346C21.4813 17.9442 21.0229 17.453 20.4045 17.0798C20.2539 18.2024 19.9127 19.0933 19.3733 19.7808C18.6631 20.6861 17.6451 21.1812 16.3474 21.2524C15.3648 21.306 14.4193 21.0691 13.6852 20.5845C12.817 20.0112 12.3088 19.1337 12.2545 18.1138C12.1473 16.1029 13.7425 14.6558 16.2238 14.5128C17.1046 14.4623 17.9286 14.5022 18.6904 14.6316C18.5893 14.013 18.385 13.5228 18.0796 13.1681C17.6599 12.6809 17.0115 12.4311 16.1522 12.4256L16.1283 12.4255C15.4384 12.4255 14.5015 12.6186 13.9046 13.5243L12.4693 12.5397C13.2684 11.3272 14.5666 10.6609 16.1276 10.6609L16.163 10.6609C18.7728 10.6776 20.3271 12.3061 20.4815 15.1505ZM13.9815 18.0179C14.0372 19.0634 15.167 19.5516 16.2545 19.4903C17.3193 19.4319 18.5278 19.0141 18.7339 16.4409C18.1815 16.3202 17.5739 16.2571 16.9244 16.2571C16.727 16.2571 16.5261 16.2629 16.3213 16.2747C14.5332 16.3777 13.9402 17.2427 13.9815 18.0179Z" fill="#ffffff"/>
</g>
<defs>
<clipPath id="clip0_1_2703">
<rect width="32" height="32" fill="white"/>
</clipPath>
</defs>
</svg>
