<svg width="30" height="30" viewBox="0 0 30 30" fill="none" xmlns="http://www.w3.org/2000/svg">
<path d="M11.25 7.5H26.25M11.25 15H26.25M11.25 22.5H21.25M5 8.75C5.33152 8.75 5.64946 8.6183 5.88388 8.38388C6.1183 8.14946 6.25 7.83152 6.25 7.5C6.25 7.16848 6.1183 6.85054 5.88388 6.61612C5.64946 6.3817 5.33152 6.25 5 6.25C4.66848 6.25 4.35054 6.3817 4.11612 6.61612C3.8817 6.85054 3.75 7.16848 3.75 7.5C3.75 7.83152 3.8817 8.14946 4.11612 8.38388C4.35054 8.6183 4.66848 8.75 5 8.75ZM5 16.25C5.33152 16.25 5.64946 16.1183 5.88388 15.8839C6.1183 15.6495 6.25 15.3315 6.25 15C6.25 14.6685 6.1183 14.3505 5.88388 14.1161C5.64946 13.8817 5.33152 13.75 5 13.75C4.66848 13.75 4.35054 13.8817 4.11612 14.1161C3.8817 14.3505 3.75 14.6685 3.75 15C3.75 15.3315 3.8817 15.6495 4.11612 15.8839C4.35054 16.1183 4.66848 16.25 5 16.25ZM5 23.75C5.33152 23.75 5.64946 23.6183 5.88388 23.3839C6.1183 23.1495 6.25 22.8315 6.25 22.5C6.25 22.1685 6.1183 21.8505 5.88388 21.6161C5.64946 21.3817 5.33152 21.25 5 21.25C4.66848 21.25 4.35054 21.3817 4.11612 21.6161C3.8817 21.8505 3.75 22.1685 3.75 22.5C3.75 22.8315 3.8817 23.1495 4.11612 23.3839C4.35054 23.6183 4.66848 23.75 5 23.75Z" stroke="#61677A" stroke-width="1.5" stroke-linecap="round"/>
</svg>
